<svg id="e25ed965-1239-4914-9fc3-9faae20e2b99" data-name="Layer 1" xmlns="http://www.w3.org/2000/svg" viewBox="0 0 155.77 115.08"><path d="M63.48,41.76c-1,.44-2.82,1.61-3.88,4.7-1,2.92-2.8,8.15-4,11.51a33.19,33.19,0,0,0,9.92,6.16,7.27,7.27,0,0,1-.28-1.5V47.13A7.65,7.65,0,0,0,63.48,41.76Z" style="fill:#c12227"/><path d="M49.56,50.67a32.62,32.62,0,0,0,5,6.24,3.9,3.9,0,0,0,.41-1.73C54.94,52.7,52.53,50.69,49.56,50.67Z" style="fill:#c12227"/><path d="M72.27,55.27c-3.11,0-5.62,2.91-5.62,6.5a7.39,7.39,0,0,0,.63,3,33.42,33.42,0,0,0,8.88,1.69,7,7,0,0,0,1.72-4.69C77.88,58.18,75.37,55.27,72.27,55.27Z" style="fill:#c12227"/><path d="M78.54,0,66.87,34c.8,9.51,1.42,16.69,1.51,17.4.28,2.25,5.63,1.12,5.63,1.12,5.73,5,6,10.68,3.8,14h.07A33.25,33.25,0,0,0,78.54,0Z" style="fill:#c12227"/><path d="M64.27,2.9c.58,7,1.24,14.79,1.85,22.08,3.7-8.41,7.72-17.55,11-25A33.13,33.13,0,0,0,64.27,2.9Z" style="fill:#c12227"/><path d="M49.6,48.68s4.69,2.81,5.69.77c.32-.65,3.28-7.33,7.17-16.18V3.78A33.26,33.26,0,0,0,48.64,49.1Z" style="fill:#c12227"/><path d="M90.08,94.8l-.31-.15c-.21-.09-.4-.19-.58-.28.08.91.15,1.85.23,2.81,1.38.69,2.07,1.46,2.07,2.32a2.17,2.17,0,0,1-.65,1.64,2.11,2.11,0,0,1-1,.53c.06.76.13,1.53.19,2.3a4.78,4.78,0,0,0,2.68-1.21A4.52,4.52,0,0,0,94,99.32a3.71,3.71,0,0,0-.84-2.48A9.1,9.1,0,0,0,90.08,94.8Z" style="fill:#221f1f"/><path d="M114.53,94.09l3.62-5.71h-2.48l-2.1,3.27Z" style="fill:#221f1f"/><path d="M88.84,90.22a3,3,0,0,1,.52,0,2.4,2.4,0,0,1,1.26.34,3.17,3.17,0,0,1,1,1l1.94-1A3.4,3.4,0,0,0,92,88.69,5.65,5.65,0,0,0,89.17,88l-.51,0Q88.75,89.07,88.84,90.22Z" style="fill:#221f1f"/><path d="M99,93.39l2.2-5H94.92v2.11h4Z" style="fill:#221f1f"/><path d="M88.2,96.58V93.74a2.16,2.16,0,0,1-1-1.65,1.73,1.73,0,0,1,.59-1.39,1.71,1.71,0,0,1,.42-.28V88.11a4.32,4.32,0,0,0-2.35,1.09,3.9,3.9,0,0,0-1.27,3,3.65,3.65,0,0,0,.84,2.43A9.39,9.39,0,0,0,88.2,96.58Z" style="fill:#221f1f"/><path d="M31.41,101.41H28.1c.06.74.13,1.48.19,2.22h2.14C30.76,102.89,31.09,102.15,31.41,101.41Z" style="fill:#c12227"/><path d="M85.79,103.14a4.93,4.93,0,0,0,2.41.86v-2.34a2.82,2.82,0,0,1-1-.44,2.71,2.71,0,0,1-1-1.56l-2,.92A4.16,4.16,0,0,0,85.79,103.14Z" style="fill:#221f1f"/><path d="M122.07,100.15V88.38h-2.48v15.25h2C121.78,102.46,121.93,101.3,122.07,100.15Z" style="fill:#221f1f"/><path d="M141.91,88.46l-1.83,5.23,1.12.42C141.48,91.88,141.72,89.94,141.91,88.46Z" style="fill:#221f1f"/><path d="M147.53,103.14a5.3,5.3,0,0,0,3.19.9H151l-.68-2.31a2.82,2.82,0,0,1-1.37-.5,2.77,2.77,0,0,1-1-1.56l-2,.92A4.16,4.16,0,0,0,147.53,103.14Z" style="fill:#221f1f"/><polygon points="141.98 92.93 143.96 88.65 142.19 88.08 141.98 92.93" style="fill:#221f1f"/><path d="M36.17,97.87a6.25,6.25,0,0,0,1.55,4.64A5.76,5.76,0,0,0,41.36,104l.3-2.25a3.3,3.3,0,0,1-2.09-1,4.41,4.41,0,0,1-1-3.1V88.38h-.73l-1.71,5Z" style="fill:#c12227"/><path d="M148.52,95.76l-1.68-5.64a4.19,4.19,0,0,0-.52,2.1,3.65,3.65,0,0,0,.84,2.43A6.18,6.18,0,0,0,148.52,95.76Z" style="fill:#221f1f"/><polygon points="129.41 92.42 129.41 103.63 132.73 103.63 132.07 101.41 131.89 101.41 131.89 100.79 129.41 92.42" style="fill:#221f1f"/><polygon points="123.54 103.63 127.61 103.63 127.61 101.41 123.64 101.41 123.54 103.63" style="fill:#221f1f"/><path d="M131.89,97.48v-1h6V94.31h-6V90.49h6V88.38h-8.51v2.73C130.09,92.85,130.93,95,131.89,97.48Z" style="fill:#221f1f"/><path d="M137.92,101.41h-4.5l.86,2.22h3.64Z" style="fill:#221f1f"/><path d="M149.73,96.47l.79.4.48.23c1.48.7,2.23,1.5,2.23,2.4a2.07,2.07,0,0,1-1.5,2.12c.28.71.56,1.44.85,2.16a4.41,4.41,0,0,0,1.82-1,4.49,4.49,0,0,0,1.37-3.44,3.71,3.71,0,0,0-.84-2.48,9.1,9.1,0,0,0-3.11-2l-.31-.15c-1.72-.79-2.58-1.64-2.58-2.56a1.75,1.75,0,0,1,.58-1.39,2.33,2.33,0,0,1,1.59-.53,2.42,2.42,0,0,1,1.26.34,3.17,3.17,0,0,1,1,1l1.94-1a3.44,3.44,0,0,0-1.57-1.87,5.65,5.65,0,0,0-2.82-.65,4.73,4.73,0,0,0-3.32,1.16,3.43,3.43,0,0,0-.48.53C147.81,91.54,148.72,93.86,149.73,96.47Z" style="fill:#221f1f"/><path d="M9.58,101,5,95.17c.12,1.41.24,2.86.36,4.33l3.14,4C8.83,102.69,9.21,101.83,9.58,101Z" style="fill:#c12227"/><polygon points="11.71 103.63 10.87 102.58 10.51 103.63 11.71 103.63" style="fill:#c12227"/><polygon points="13.01 96.33 13.01 103.63 21.52 103.63 21.52 101.41 15.49 101.41 15.49 96.49 21.52 96.49 21.52 94.31 15.49 94.31 15.49 90.49 21.52 90.49 21.52 88.38 15.75 88.38 13.01 96.33" style="fill:#c12227"/><path d="M15.11,88.38H13v4.78Z" style="fill:#c12227"/><path d="M5,95.16l6-6.78H8L4.7,92.14C4.78,93.12,4.86,94.13,5,95.16Z" style="fill:#c12227"/><polygon points="34.27 103.63 34.27 101.41 33.4 101.41 32.64 103.63 34.27 103.63" style="fill:#c12227"/><path d="M112.9,103.63v-7l.89-1.39-.8-2.69-.6.93a6.54,6.54,0,0,0-.34.59,7.17,7.17,0,0,0-.3.69l-.35-.7c-.12-.21-.21-.39-.29-.52l-3.2-5.18h-6.43L99,95.69v7.94h2.48V90.49h4V88.66l5,8v7Z" style="fill:#221f1f"/><polygon points="2.48 95.84 3.62 97.31 3.62 93.38 2.48 94.69 2.48 88.38 0 88.38 0 103.63 2.48 103.63 2.48 95.84" style="fill:#c12227"/><polygon points="26.15 97.6 22.59 103.63 26.15 103.63 26.15 97.6" style="fill:#c12227"/><path d="M54.37,93.15V88.38H51.89v8.83C52.78,95.75,53.61,94.38,54.37,93.15Z" style="fill:#c12227"/><path d="M68.51,96.78l1.17-2.62c.1-.24.19-.5.29-.79s.18-.6.26-.94c.1.36.2.68.29,1s.19.54.28.76l1.57,3.48H68.46c0,.68-.07,1.37-.1,2.06h4.88l.51,1.16,1.44-2.37-5-10.71-1.4,3C68.72,92.63,68.61,94.66,68.51,96.78Z" style="fill:#c12227"/><polygon points="54.37 94.5 51.89 99.44 51.89 103.63 54.37 103.63 54.37 95.84 60.4 103.63 63.59 103.63 63.59 103.63 65.43 103.63 66.59 101.06 67.64 93.3 63.11 103.03 56.83 95.16 62.87 88.38 59.84 88.38 54.37 94.69 54.37 94.5" style="fill:#c12227"/><polygon points="74.97 103.63 77.58 103.63 75.88 99.97 74.54 102.65 74.97 103.63" style="fill:#c12227"/><rect x="23.89" y="88.38" width="2.26" height="2.1" style="fill:#c12227"/><path d="M27.19,90.49h3.17l-2.78,4.7c.11,1.25.21,2.52.32,3.81l6.27-10.62H27C27.07,89.06,27.13,89.77,27.19,90.49Z" style="fill:#c12227"/><path d="M43.16,104a6,6,0,0,0,4-1.51,6.23,6.23,0,0,0,1.56-4.63V88.38H46.2v9.26a4.41,4.41,0,0,1-1,3.1,3.19,3.19,0,0,1-2,1Z" style="fill:#c12227"/><path d="M37.14,88.38h-1v2.21Z" style="fill:#c12227"/><path d="M31.54,112.4v2.68h-.9v-6H32.1a4.45,4.45,0,0,1,1,.07,1.48,1.48,0,0,1,.54.24A1.3,1.3,0,0,1,34,110a1.78,1.78,0,0,1,.16.78,1.85,1.85,0,0,1-.16.78,1.24,1.24,0,0,1-.44.56,1.32,1.32,0,0,1-.54.23,4.45,4.45,0,0,1-1,.07h-.56Zm.07-.79h.24a2.17,2.17,0,0,0,1.08-.18.67.67,0,0,0,.27-.62.73.73,0,0,0-.29-.67,2,2,0,0,0-1.06-.2h-.24Z" style="fill:#434243"/><path d="M38.5,112.41v2.67h-.91v-6h1.35a4.38,4.38,0,0,1,.93.08,1.45,1.45,0,0,1,.56.26,1.47,1.47,0,0,1,.43.55,1.87,1.87,0,0,1,.15.76,1.69,1.69,0,0,1-.35,1.12,1.55,1.55,0,0,1-1,.49l2,2.71h-1.1l-2-2.67Zm.06-.75h.17a2,2,0,0,0,1-.18.72.72,0,0,0,.25-.64.8.8,0,0,0-.27-.69,1.74,1.74,0,0,0-1-.21h-.17Z" style="fill:#434243"/><path d="M50.9,112.11a3.06,3.06,0,0,1-.24,1.2,2.92,2.92,0,0,1-.7,1,3.15,3.15,0,0,1-1,.69,3.29,3.29,0,0,1-1.21.23,3.21,3.21,0,0,1-1.23-.24,3,3,0,0,1-1-.68,3.12,3.12,0,0,1-.69-3.42,3.13,3.13,0,0,1,.69-1,3.07,3.07,0,0,1,1-.68,3.38,3.38,0,0,1,2.45,0,3.12,3.12,0,0,1,2,2.9m-1,0a2.27,2.27,0,0,0-.17-.86,2.34,2.34,0,0,0-.47-.73,2.19,2.19,0,0,0-.7-.48,2.21,2.21,0,0,0-.84-.17,2.18,2.18,0,0,0-2,1.37,2.36,2.36,0,0,0-.17.87,2.27,2.27,0,0,0,.17.86,2.17,2.17,0,0,0,1.18,1.2,2.14,2.14,0,0,0,1.67,0,2.26,2.26,0,0,0,1.35-2.06" style="fill:#434243"/><polygon points="54.52 115.08 54.52 109.11 57.85 109.11 57.85 109.94 55.49 109.94 55.49 111.42 57.85 111.42 57.85 112.28 55.49 112.28 55.49 115.08 54.52 115.08" style="fill:#434243"/><polygon points="61.41 115.08 61.41 109.11 64.74 109.11 64.74 109.94 62.38 109.94 62.38 111.43 64.74 111.43 64.74 112.28 62.38 112.28 62.38 114.22 64.74 114.22 64.74 115.08 61.41 115.08" style="fill:#434243"/><path d="M68,113.89l.78-.36a1,1,0,0,0,.4.61,1.26,1.26,0,0,0,.75.21,1,1,0,0,0,.69-.24.85.85,0,0,0,.25-.65q0-.52-.87-.93a1,1,0,0,0-.19-.09,4,4,0,0,1-1.31-.88,1.39,1.39,0,0,1-.33-1,1.53,1.53,0,0,1,.49-1.18A1.87,1.87,0,0,1,70,109a2.22,2.22,0,0,1,1.11.25,1.37,1.37,0,0,1,.61.73l-.75.4a1.35,1.35,0,0,0-.4-.42,1,1,0,0,0-.49-.13.88.88,0,0,0-.62.21.66.66,0,0,0-.23.54c0,.36.33.7,1,1l.12.05a3.74,3.74,0,0,1,1.22.8,1.46,1.46,0,0,1,.33,1,1.74,1.74,0,0,1-.54,1.35,2,2,0,0,1-1.44.5,2,2,0,0,1-1.25-.35,1.61,1.61,0,0,1-.64-1" style="fill:#434243"/><path d="M75.11,113.89l.78-.36a1.06,1.06,0,0,0,.4.61,1.28,1.28,0,0,0,.75.21,1,1,0,0,0,.69-.24.85.85,0,0,0,.25-.65q0-.52-.87-.93a1,1,0,0,0-.19-.09,4.26,4.26,0,0,1-1.31-.88,1.39,1.39,0,0,1-.33-1,1.5,1.5,0,0,1,.5-1.18,1.84,1.84,0,0,1,1.29-.45,2.22,2.22,0,0,1,1.11.25,1.38,1.38,0,0,1,.62.73l-.76.4a1.25,1.25,0,0,0-.4-.42,1,1,0,0,0-.49-.13.88.88,0,0,0-.62.21.69.69,0,0,0-.23.54c0,.36.34.7,1,1l.12.05a3.74,3.74,0,0,1,1.22.8,1.46,1.46,0,0,1,.33,1,1.77,1.77,0,0,1-.53,1.35,2,2,0,0,1-1.45.5,2.05,2.05,0,0,1-1.25-.35,1.66,1.66,0,0,1-.64-1" style="fill:#434243"/><rect x="82.56" y="109.11" width="0.97" height="5.97" style="fill:#434243"/><path d="M93.56,112.11a3.06,3.06,0,0,1-.24,1.2,2.92,2.92,0,0,1-.7,1,3.15,3.15,0,0,1-1,.69,3.29,3.29,0,0,1-1.21.23,3.21,3.21,0,0,1-1.23-.24,3,3,0,0,1-1-.68,3.12,3.12,0,0,1-.69-3.42,3.13,3.13,0,0,1,.69-1,3.07,3.07,0,0,1,1-.68,3.2,3.2,0,0,1,1.23-.23,3.12,3.12,0,0,1,1.22.23,2.94,2.94,0,0,1,1,.68,3.07,3.07,0,0,1,.94,2.22m-1,0a2.27,2.27,0,0,0-.17-.86,2.34,2.34,0,0,0-.47-.73,2.08,2.08,0,0,0-.7-.48,2.18,2.18,0,0,0-2.39.48,2.3,2.3,0,0,0-.47.72,2.35,2.35,0,0,0-.16.87,2.27,2.27,0,0,0,.16.86,2.3,2.3,0,0,0,.47.72,2.12,2.12,0,0,0,.71.48,2.14,2.14,0,0,0,1.67,0,2.26,2.26,0,0,0,1.35-2.06" style="fill:#434243"/><path d="M97.18,115.08v-6.21l3.79,3.66c.11.1.21.21.32.33s.22.25.33.39v-4.14h.9v6.21l-3.87-3.72a3,3,0,0,1-.3-.32c-.1-.11-.19-.23-.28-.35v4.15Z" style="fill:#434243"/><path d="M110.34,115.08l-.68-1.53H107.3l-.7,1.53h-1l2.9-6.21,2.89,6.21Zm-2.68-2.34h1.66l-.61-1.36c0-.09-.07-.19-.11-.3a3.44,3.44,0,0,1-.11-.38c0,.13-.07.25-.11.36s-.07.22-.11.32Z" style="fill:#434243"/><polygon points="114.44 115.08 114.44 109.11 115.41 109.11 115.41 114.22 117.58 114.22 117.58 115.08 114.44 115.08" style="fill:#434243"/><polygon points="119.42 111.19 120.19 108.98 120.94 109.22 119.94 111.38 119.42 111.19" style="fill:#434243"/><path d="M124.29,113.89l.77-.36a1.08,1.08,0,0,0,.41.61,1.23,1.23,0,0,0,.75.21,1,1,0,0,0,.68-.24.86.86,0,0,0,.26-.65q0-.52-.87-.93l-.19-.09a4.21,4.21,0,0,1-1.32-.88,1.39,1.39,0,0,1-.33-1,1.53,1.53,0,0,1,.5-1.18,1.85,1.85,0,0,1,1.3-.45,2.16,2.16,0,0,1,1.1.25,1.34,1.34,0,0,1,.62.73l-.76.4a1.33,1.33,0,0,0-.39-.42,1,1,0,0,0-.49-.13.92.92,0,0,0-.63.21.69.69,0,0,0-.23.54c0,.36.34.7,1,1l.12.05a3.68,3.68,0,0,1,1.21.8,1.46,1.46,0,0,1,.33,1,1.73,1.73,0,0,1-.53,1.35,2,2,0,0,1-1.44.5,2.08,2.08,0,0,1-1.26-.35,1.64,1.64,0,0,1-.63-1" style="fill:#434243"/></svg>