<?xml version="1.0" encoding="utf-8"?>
<!-- Generator: Adobe Illustrator 25.0.0, SVG Export Plug-In . SVG Version: 6.00 Build 0)  -->
<svg version="1.1" id="Layer_1" xmlns="http://www.w3.org/2000/svg" xmlns:xlink="http://www.w3.org/1999/xlink" x="0px" y="0px"
	 viewBox="0 0 31.9 32" style="enable-background:new 0 0 31.9 32;" xml:space="preserve">
<style type="text/css">
	.st0{fill:#C12227;}
</style>
<g>
	<path class="st0" d="M9.1,20.1c-0.5,0.2-1.3,0.8-1.9,2.2c-0.5,1.4-1.3,3.9-1.9,5.5c1.4,1.2,3,2.2,4.7,2.9C9.9,30.3,9.9,30,9.9,30
		v-7.4C9.9,21.3,9.4,20.5,9.1,20.1z"/>
	<path class="st0" d="M2.4,24.3c0.7,1.1,1.5,2.1,2.4,3C4.9,27.1,5,26.8,5,26.5C5,25.3,3.8,24.3,2.4,24.3z"/>
	<path class="st0" d="M13.3,26.5c-1.5,0-2.7,1.4-2.7,3.1c0,0.5,0.1,1,0.3,1.4c1.3,0.5,2.8,0.7,4.2,0.8c0.5-0.6,0.8-1.4,0.8-2.2
		C15.9,27.9,14.7,26.5,13.3,26.5z"/>
	<path class="st0" d="M16.3,0.1l-5.6,16.2c0.4,4.5,0.7,8,0.7,8.3c0.1,1.1,2.7,0.5,2.7,0.5c2.7,2.4,2.9,5.1,1.8,6.7c0,0,0,0,0,0
		c8.8,0,15.9-7.1,15.9-15.9C31.8,7.3,24.9,0.3,16.3,0.1z"/>
	<path class="st0" d="M9.4,1.5C9.7,4.8,10,8.6,10.3,12c1.8-4,3.7-8.4,5.2-11.9C13.4,0.2,11.3,0.6,9.4,1.5z"/>
	<path class="st0" d="M2.4,23.4c0,0,2.2,1.3,2.7,0.4c0.2-0.3,1.6-3.5,3.4-7.7V1.9C3.5,4.6,0,9.9,0,16c0,2.7,0.7,5.3,1.9,7.6
		C2.1,23.5,2.3,23.4,2.4,23.4z"/>
</g>
</svg>
